<svg class="icon" style="width: 1em;height: 1em;vertical-align: middle;fill: currentColor;overflow: hidden;" viewBox="0 0 1024 1024" version="1.1" xmlns="http://www.w3.org/2000/svg" p-id="3139"><path d="M682.479065 511.948836 682.479065 97.416608 339.37204 97.416608l0 209.466174L63.904067 306.882782l0 616.733087 275.467972 0 67.639053 0 207.112621 0 68.355351 0 274.751674 0L957.230738 511.948836 682.479065 511.948836 682.479065 511.948836zM338.860398 855.465174 132.054762 855.465174 132.054762 375.033477l206.805636 0L338.860398 855.465174 338.860398 855.465174zM407.522734 855.465174 407.522734 165.567303l206.805636 0 0 346.381533-0.204657 0L614.123713 855.465174 407.522734 855.465174 407.522734 855.465174 407.522734 855.465174zM889.080044 855.465174 682.479065 855.465174l0-275.263316 206.600979 0L889.080044 855.465174 889.080044 855.465174z" p-id="3140"></path></svg>